<?xml version="1.0" encoding="utf-8"?>
<!-- Generator: Adobe Illustrator 27.5.0, SVG Export Plug-In . SVG Version: 6.00 Build 0)  -->
<svg version="1.1" xmlns="http://www.w3.org/2000/svg" xmlns:xlink="http://www.w3.org/1999/xlink" x="0px" y="0px"
	 viewBox="0 0 2200 2200" style="enable-background:new 0 0 2200 2200;" xml:space="preserve">
<g id="background">
	<rect style="fill:#FFFFFF;" width="2200" height="2200"/>
</g>
<g id="Objects">
	<g>
		<g>
			<path style="fill:#F4CC21;" d="M868.191,1454.663c-15.317,88.944-78.125,161.689-162.729,188.469
				c-85.136,26.952-189.921,10.715-271.518,38.782c28.074-81.589,11.837-186.374,38.789-271.51
				c26.78-84.605,99.525-147.413,188.462-162.737l29.278-21.872l203.675,203.675L868.191,1454.663z"/>
			<path style="fill:#E2A817;" d="M790.27,1325.595l-356.326,356.326c28.066-81.599,11.829-186.385,38.789-271.521
				c26.78-84.597,99.522-147.417,188.458-162.728l29.282-21.875L790.27,1325.595z"/>
			<path style="fill:#2C3235;" d="M950.342,1434.512l-57.516,27.361c-7.138,3.391-15.106,2.319-20.145-2.721l-77.213-77.213
				l-61.842-61.842l-76.913-76.913c-5.039-5.039-6.111-13.007-2.721-20.145l27.361-57.516l25.553-25.553l268.989,268.989
				L950.342,1434.512z"/>
			<path style="fill:#1B1F21;" d="M841.399,1274.466l-76.707,76.707l-107.978-107.978c-5.044-5.044-6.108-13.017-2.722-20.161
				l27.361-57.513l25.551-25.551L841.399,1274.466z"/>
			<path style="fill:#A51E2B;" d="M848.85,951.289c-102.138-102.138-283.16-93.047-516.982,140.775l-0.037-0.037
				c-11.583,11.583-11.583,30.362,0,41.944l0,0c6.163,6.163,18.241,9.448,31.706,5.366c243.052-73.671,329.823-24.68,329.823-24.68
				l159.429-159.429L848.85,951.289z"/>
			<path style="fill:#D32932;" d="M1164.577,1267.015c102.138,102.138,93.047,283.161-140.775,516.982l0.037,0.037
				c-11.583,11.583-30.362,11.583-41.944,0l0,0c-6.163-6.163-9.448-18.241-5.366-31.706c73.671-243.052,24.68-329.823,24.68-329.823
				l159.429-159.429L1164.577,1267.015z"/>
			<path style="fill:#DDE7ED;" d="M1860.999,531.315c-28.994,162.808-106.469,372.397-299.32,565.248
				c-166.494,166.494-433.008,303.242-592.95,344.201c-6.059,1.548-12.039,0.082-16.025-3.904l-273.698-273.698
				c-3.986-3.986-5.452-9.966-3.904-16.025c40.959-159.942,177.707-426.456,344.201-592.95
				c192.851-192.851,402.44-270.326,565.248-299.32c0,0,59.778-4.556,170.391,106.057
				C1866.389,472.371,1860.999,531.315,1860.999,531.315z"/>
			<path style="fill:#B6CBD6;" d="M1754.945,360.92l-939.097,939.097l-136.845-136.845c-3.993-3.994-5.444-9.977-3.897-16.03
				c40.958-159.936,177.707-426.469,344.193-592.955c192.852-192.852,402.438-270.333,565.249-299.324
				C1584.548,254.862,1644.328,250.302,1754.945,360.92z"/>
			<path style="fill:#D32932;" d="M990.771,1207.954c-159.069,159.069-320.627,296.215-349.85,266.991
				c-30.335-30.335,107.922-190.781,266.991-349.85c22.881-22.881,59.978-22.881,82.859,0
				C1013.652,1147.976,1013.652,1185.073,990.771,1207.954z"/>
			<path style="fill:#A51E2B;" d="M990.764,1125.101l-349.845,349.845c-30.332-30.332,107.923-190.779,266.989-349.845
				C930.791,1102.218,967.88,1102.218,990.764,1125.101z"/>
			<circle style="fill:#FFFFFF;" cx="1355.823" cy="760.042" r="253.32"/>
			<path style="fill:#E4EDF2;" d="M1534.953,580.912l-358.26,358.26c-98.927-98.927-98.927-259.333,0-358.26
				C1275.62,481.985,1436.026,481.985,1534.953,580.912z"/>
			<path style="fill:#6EB5E5;" d="M1498.013,902.233c-78.537,78.537-205.861,78.537-284.398,0
				c-15.782-15.782-28.401-33.555-37.838-52.483c-6.469-12.974-11.445-26.517-14.911-40.362
				c-4.354-17.222-6.398-34.906-6.096-52.554c0.533-35.225,10.308-70.309,29.271-101.357c8.14-13.401,18.021-26.055,29.591-37.625
				c78.537-78.537,205.861-78.537,284.38-0.018c11.588,11.588,21.469,24.242,29.609,37.642
				c18.964,31.049,28.721,66.15,29.272,101.357c0.266,17.648-1.742,35.332-6.096,52.554c-3.483,13.827-8.478,27.352-14.929,40.344
				C1526.414,868.678,1513.813,886.433,1498.013,902.233z"/>
			<path style="fill:#57A4CE;" d="M1213.615,902.233c-15.782-15.782-28.401-33.555-37.838-52.483
				c-6.469-12.974-11.445-26.517-14.911-40.362c-4.354-17.222-6.398-34.906-6.096-52.554c0.533-35.225,10.308-70.309,29.271-101.357
				c8.14-13.401,18.021-26.055,29.591-37.625c78.537-78.537,205.861-78.537,284.38-0.018L1213.615,902.233z"/>
			<path style="fill:#D32932;" d="M1860.999,531.315c0,0-22.491-47.644-125.655-150.808
				c-103.148-103.148-150.792-125.64-150.792-125.64c111.809-19.922,201.572-16.996,248.739-12.874
				c22.226,1.966,38.617,18.356,40.567,40.567C1877.979,329.727,1880.921,419.506,1860.999,531.315z"/>
			<path style="fill:#A51E2B;" d="M1861.182,254.683L1735.35,380.515l-0.014-0.014
				c-103.142-103.142-150.788-125.639-150.788-125.639c111.806-19.913,201.572-16.983,248.748-12.865
				C1844.407,242.992,1854.066,247.566,1861.182,254.683z"/>
		</g>
		<ellipse style="fill:#E1EAEF;" cx="1140.892" cy="1935.049" rx="347.745" ry="25.951"/>
	</g>
</g>
</svg>
